HIERARCHY
ROOT Hips
{
	OFFSET 0.000000 0.000000 0.000000
	CHANNELS 6 Xposition Yposition Zposition Zrotation Yrotation Xrotation 
	JOINT LowerBack
	{
		OFFSET 0.000000 0.000000 0.000000
		CHANNELS 3 Zrotation Yrotation Xrotation
		JOINT Spine
		{
			OFFSET 0.028270 2.035590 -0.193380
			CHANNELS 3 Zrotation Yrotation Xrotation
			JOINT Spine1
			{
				OFFSET 0.056720 2.048850 -0.042750
				CHANNELS 3 Zrotation Yrotation Xrotation
				JOINT Neck
				{
					OFFSET 0.000000 0.000000 0.000000
					CHANNELS 3 Zrotation Yrotation Xrotation
					JOINT Neck1
					{
						OFFSET -0.054170 1.746240 0.172020
						CHANNELS 3 Zrotation Yrotation Xrotation
						JOINT Head
						{
							OFFSET 0.104070 1.761360 -0.123970
							CHANNELS 3 Zrotation Yrotation Xrotation
							End Site
							{
								OFFSET 0.000000 0.000000 0.000000
							}
						}
					}
				}
				JOINT LeftShoulder
				{
					OFFSET 0.000000 0.000000 0.000000
					CHANNELS 3 Zrotation Yrotation Xrotation
					JOINT LeftArm
					{
						OFFSET 3.362410 1.200890 -0.311210
						CHANNELS 3 Zrotation Yrotation Xrotation
						JOINT LeftForeArm
						{
							OFFSET 4.983000 -0.000000 -0.000000
							CHANNELS 3 Zrotation Yrotation Xrotation
							JOINT LeftHand
							{
								OFFSET 3.483560 -0.000000 -0.000000
								CHANNELS 3 Zrotation Yrotation Xrotation
								JOINT LeftFingerBase
								{
									OFFSET 0.000000 0.000000 0.000000
									CHANNELS 3 Zrotation Yrotation Xrotation
									JOINT LeftHandIndex1
									{
										OFFSET 0.715260 -0.000000 -0.000000
										CHANNELS 3 Zrotation Yrotation Xrotation
										End Site
										{
											OFFSET 0.000000 0.000000 0.000000
										}
									}
								}
								JOINT LThumb
								{
									OFFSET 0.000000 0.000000 0.000000
									CHANNELS 3 Zrotation Yrotation Xrotation
									End Site
									{
										OFFSET 0.000000 0.000000 0.000000
									}
								}
							}
						}
					}
				}
				JOINT RightShoulder
				{
					OFFSET 0.000000 0.000000 0.000000
					CHANNELS 3 Zrotation Yrotation Xrotation
					JOINT RightArm
					{
						OFFSET -3.136600 1.374050 -0.404650
						CHANNELS 3 Zrotation Yrotation Xrotation
						JOINT RightForeArm
						{
							OFFSET -5.241900 -0.000000 -0.000000
							CHANNELS 3 Zrotation Yrotation Xrotation
							JOINT RightHand
							{
								OFFSET -3.444170 -0.000000 -0.000000
								CHANNELS 3 Zrotation Yrotation Xrotation
								JOINT RightFingerBase
								{
									OFFSET 0.000000 0.000000 0.000000
									CHANNELS 3 Zrotation Yrotation Xrotation
									JOINT RightHandIndex1
									{
										OFFSET -0.622530 -0.000000 -0.000000
										CHANNELS 3 Zrotation Yrotation Xrotation
										End Site
										{
											OFFSET 0.000000 0.000000 0.000000
										}
									}
								}
								JOINT RThumb
								{
									OFFSET 0.000000 0.000000 0.000000
									CHANNELS 3 Zrotation Yrotation Xrotation
									End Site
									{
										OFFSET 0.000000 0.000000 0.000000
									}
								}
							}
						}
					}
				}
			}
		}
	}
}
}
MOTION
Frames: 11
Frame Time: 0.008333
-11.689441 16.609168 -2.263422 12.457748 87.486377 33.000138 -6.307650 0.213000 1.982422 -1.986873 0.568333 -2.344331 -5.754056 0.516973 1.659967 8.375006 -4.300060 -5.694856 -3.017924 -0.244070 0.346338 0.000000 0.000000 0.000000 -7.423706 13.091901 2.171237 -63.074109 15.093461 6.501217 -4.364129 -28.583351 -0.030921 -13.219035 6.731569 -0.785715 -0.093422 -0.086059 -0.000000 0.000000 0.000000 0.000000 0.000000 0.000000 0.000000 12.383399 -0.262143 0.978193 49.409067 22.816765 18.693636 1.576726 64.261360 0.032092 10.592995 8.210335 0.791676 -0.086284 -0.241280 -0.000000 0.000000 0.000000 0.000000 0.000000 0.000000 0.000000 
-11.503717 16.621126 -2.273534 16.379493 87.461539 36.840343 -6.693111 0.124713 2.093580 -2.076953 0.500100 -2.337075 -5.832164 0.449025 1.610684 8.507283 -4.315436 -5.658854 -3.051529 -0.246687 0.351031 0.000000 0.000000 0.000000 -7.396676 12.809787 2.196051 -62.945637 14.519503 6.416649 -4.397710 -28.100284 -0.030324 -13.151126 6.764020 -0.784801 -0.095483 -0.082682 -0.000000 0.000000 0.000000 0.000000 0.000000 0.000000 0.000000 12.614835 -0.333863 0.935207 50.280966 22.014013 18.803567 1.610872 63.883938 0.031976 10.586838 8.223873 0.792091 -0.083447 -0.238503 -0.000000 0.000000 0.000000 0.000000 0.000000 0.000000 0.000000 
-11.320166 16.634980 -2.285446 18.888541 87.332423 39.255380 -7.045106 0.060494 2.205162 -2.161664 0.453099 -2.330585 -5.906363 0.402341 1.561610 8.603594 -4.319106 -5.615072 -3.085226 -0.249375 0.357991 0.000000 0.000000 0.000000 -7.377239 12.522576 2.215761 -62.831525 13.913719 6.374465 -4.427117 -27.634523 -0.029691 -13.081524 6.799539 -0.784185 -0.097250 -0.079238 -0.000000 0.000000 0.000000 0.000000 0.000000 0.000000 0.000000 12.813377 -0.390178 0.895686 51.146904 21.232001 18.949467 1.647889 63.429282 0.031808 10.602775 8.230597 0.793405 -0.080922 -0.235146 -0.000000 0.000000 0.000000 0.000000 0.000000 0.000000 0.000000 
-11.139107 16.650141 -2.299308 20.392006 87.129289 40.658280 -7.367137 0.009671 2.313397 -2.239937 0.417146 -2.323414 -5.974159 0.366741 1.519141 8.667204 -4.323363 -5.570475 -3.118707 -0.252024 0.365349 0.000000 0.000000 0.000000 -7.362061 12.244750 2.230801 -62.734126 13.258501 6.385948 -4.452549 -27.190189 -0.029001 -13.009544 6.837209 -0.783569 -0.098736 -0.075649 -0.000000 0.000000 0.000000 0.000000 0.000000 0.000000 0.000000 12.986222 -0.449164 0.859557 51.984733 20.497992 19.148674 1.687232 62.902101 0.031560 10.636447 8.229753 0.795317 -0.078670 -0.231161 -0.000000 0.000000 0.000000 0.000000 0.000000 0.000000 0.000000 
-10.960751 16.666134 -2.315334 21.049144 86.869228 41.213954 -7.651467 -0.032083 2.412389 -2.309137 0.387788 -2.316571 -6.034221 0.337631 1.482668 8.697681 -4.323575 -5.525030 -3.150981 -0.254572 0.373322 0.000000 0.000000 0.000000 -7.354102 11.977160 2.242435 -62.653267 12.560540 6.450384 -4.473753 -26.785214 -0.028248 -12.935690 6.875933 -0.782850 -0.099943 -0.071909 -0.000000 0.000000 0.000000 0.000000 0.000000 0.000000 0.000000 13.126903 -0.507024 0.826591 52.788464 19.805645 19.397729 1.728161 62.314707 0.031235 10.692474 8.216867 0.797724 -0.076772 -0.226524 -0.000000 0.000000 0.000000 0.000000 0.000000 0.000000 0.000000 
-10.785314 16.682635 -2.333277 21.088993 86.569193 41.155221 -7.893853 -0.069217 2.499970 -2.367905 0.360709 -2.309797 -6.086391 0.310682 1.453659 8.700510 -4.321640 -5.481227 -3.181538 -0.256953 0.381276 0.000000 0.000000 0.000000 -7.349852 11.725420 2.251573 -62.586315 11.816088 6.568868 -4.490935 -26.430802 -0.027429 -12.859684 6.913232 -0.781829 -0.100894 -0.067998 -0.000000 0.000000 0.000000 0.000000 0.000000 0.000000 0.000000 13.239141 -0.566715 0.796835 53.550054 19.157855 19.696516 1.770131 61.677859 0.030828 10.770561 8.189917 0.800329 -0.075225 -0.221256 -0.000000 0.000000 0.000000 0.000000 0.000000 0.000000 0.000000 
-10.612869 16.699499 -2.352959 20.600427 86.240599 40.573994 -8.086819 -0.103356 2.574479 -2.414431 0.334190 -2.303591 -6.131032 0.284126 1.430774 8.679342 -4.315449 -5.438966 -3.209598 -0.259119 0.389352 0.000000 0.000000 0.000000 -7.351053 11.487649 2.259083 -62.528245 11.031939 6.735886 -4.504095 -26.143200 -0.026546 -12.781750 6.946083 -0.780205 -0.101611 -0.063940 -0.000000 0.000000 0.000000 0.000000 0.000000 0.000000 0.000000 13.321341 -0.625538 0.770532 54.268837 18.547599 20.037885 1.812749 61.001732 0.030348 10.870033 8.147447 0.802930 -0.074003 -0.215411 -0.000000 0.000000 0.000000 0.000000 0.000000 0.000000 0.000000 
-10.443520 16.716756 -2.373672 19.805282 85.897785 39.691298 -8.232815 -0.138085 2.639456 -2.449324 0.305051 -2.297045 -6.169430 0.254851 1.413936 8.643803 -4.307860 -5.399554 -3.235013 -0.261037 0.397093 0.000000 0.000000 0.000000 -7.350809 11.262554 2.265926 -62.472248 10.208086 6.946006 -4.513891 -25.931807 -0.025599 -12.701638 6.970675 -0.777377 -0.102143 -0.059746 -0.000000 0.000000 0.000000 0.000000 0.000000 0.000000 0.000000 13.382513 -0.686996 0.747900 54.943597 17.972928 20.414733 1.855647 60.295358 0.029794 10.987053 8.090263 0.805328 -0.073043 -0.209084 0.000000 0.000000 0.000000 0.000000 0.000000 0.000000 0.000000 
-10.277305 16.734606 -2.394772 18.839831 85.551955 38.641737 -8.334492 -0.175785 2.699290 -2.473343 0.271203 -2.289448 -6.203063 0.220846 1.402024 8.602238 -4.298152 -5.362811 -3.257685 -0.262697 0.404443 0.000000 0.000000 0.000000 -7.344212 11.048062 2.273159 -62.410075 9.344612 7.192021 -4.521164 -25.802526 -0.024590 -12.619220 6.982899 -0.773148 -0.102563 -0.055423 -0.000000 0.000000 0.000000 0.000000 0.000000 0.000000 0.000000 13.429287 -0.750420 0.728658 55.577316 17.424620 20.813012 1.898365 59.567867 0.029171 11.119540 8.018770 0.807224 -0.072322 -0.202369 0.000000 0.000000 0.000000 0.000000 0.000000 0.000000 0.000000 
-10.114208 16.753373 -2.415531 17.837652 85.213538 37.555845 -8.398757 -0.218743 2.759817 -2.488269 0.230775 -2.279910 -6.233681 0.180340 1.393564 8.563553 -4.288656 -5.328191 -3.277791 -0.264113 0.411414 0.000000 0.000000 0.000000 -7.326598 10.836327 2.281528 -62.332725 8.447041 7.462361 -4.526716 -25.762049 -0.023533 -12.534761 6.979217 -0.766914 -0.102935 -0.051010 -0.000000 0.000000 0.000000 0.000000 0.000000 0.000000 0.000000 13.470716 -0.818728 0.713006 56.173911 16.897707 21.219831 1.940759 58.823829 0.028487 11.261590 7.936339 0.808617 -0.071746 -0.195394 0.000000 0.000000 0.000000 0.000000 0.000000 0.000000 0.000000 
-9.954143 16.773421 -2.435312 16.878446 84.889655 36.510403 -8.432756 -0.268162 2.826057 -2.495999 0.182888 -2.267946 -6.263037 0.132533 1.386470 8.534740 -4.276549 -5.293816 -3.295679 -0.265327 0.418380 0.000000 0.000000 0.000000 -7.293772 10.621788 2.292055 -62.231048 7.517696 7.746627 -4.531585 -25.810718 -0.022436 -12.448748 6.956013 -0.758477 -0.103346 -0.046523 -0.000000 0.000000 0.000000 0.000000 0.000000 0.000000 0.000000 13.513374 -0.888962 0.700362 56.739512 16.377661 21.613534 1.982401 58.070173 0.027751 11.411798 7.844561 0.809309 -0.071315 -0.188266 0.000000 0.000000 0.000000 0.000000 0.000000 0.000000 0.000000 
